<mxfile host="app.diagrams.net" modified="2023-10-08T08:51:26.786Z" agent="Mozilla/5.0 (Windows NT 10.0; Win64; x64) AppleWebKit/537.36 (KHTML, like Gecko) Chrome/117.0.0.0 Safari/537.36" etag="9xnvokdD53qF-zAWhUUU" version="22.0.4" type="github">
  <diagram id="C5RBs43oDa-KdzZeNtuy" name="Page-1">
    <mxGraphModel dx="2084" dy="1922" grid="0" gridSize="10" guides="1" tooltips="1" connect="1" arrows="1" fold="1" page="1" pageScale="1" pageWidth="827" pageHeight="1169" math="0" shadow="0">
      <root>
        <mxCell id="WIyWlLk6GJQsqaUBKTNV-0" />
        <mxCell id="WIyWlLk6GJQsqaUBKTNV-1" parent="WIyWlLk6GJQsqaUBKTNV-0" />
        <mxCell id="1owg42yloBusg6G1mB5r-115" value="" style="rounded=0;whiteSpace=wrap;html=1;strokeColor=default;" parent="WIyWlLk6GJQsqaUBKTNV-1" vertex="1">
          <mxGeometry x="-193" y="-820" width="2384" height="2084" as="geometry" />
        </mxCell>
        <mxCell id="1owg42yloBusg6G1mB5r-0" value="&lt;ol style=&quot;box-sizing: border-box; margin-top: 0px; margin-bottom: 1rem; padding-top: 10px; padding-bottom: 10px; font-size: 17px; color: rgb(68, 68, 68); font-family: proxima-nova, sans-serif; letter-spacing: 0.175px; text-align: left; background-color: rgb(255, 255, 255);&quot;&gt;&lt;li style=&quot;box-sizing: border-box;&quot;&gt;Head Tube&lt;/li&gt;&lt;li style=&quot;box-sizing: border-box;&quot;&gt;Top Tube&lt;/li&gt;&lt;li style=&quot;box-sizing: border-box;&quot;&gt;Down Tube&lt;/li&gt;&lt;li style=&quot;box-sizing: border-box;&quot;&gt;Seat Tube&lt;/li&gt;&lt;li style=&quot;box-sizing: border-box;&quot;&gt;Seat Stay&lt;/li&gt;&lt;li style=&quot;box-sizing: border-box;&quot;&gt;Chain Stay&lt;/li&gt;&lt;/ol&gt;" style="rounded=0;whiteSpace=wrap;html=1;" parent="WIyWlLk6GJQsqaUBKTNV-1" vertex="1">
          <mxGeometry x="-150" y="-10" width="180" height="190" as="geometry" />
        </mxCell>
        <mxCell id="1owg42yloBusg6G1mB5r-1" value="&lt;p style=&quot;box-sizing: border-box; margin-top: 0px; margin-bottom: 1rem; line-height: 1.5; font-family: proxima-nova, arial, sans-serif; font-size: 17px; color: rgb(68, 68, 68); padding-right: 10px; letter-spacing: 0.175px; text-align: left; background-color: rgb(255, 255, 255);&quot;&gt;You can assume that you have specialised agents of several types:&lt;/p&gt;&lt;ul style=&quot;box-sizing: border-box; margin-top: 0px; padding-left: 1rem; margin-inline-start: 0.2rem; margin-bottom: 18px; font-family: proxima-nova, arial, sans-serif; font-size: 17px; color: rgb(68, 68, 68); letter-spacing: 0.175px; text-align: left; background-color: rgb(255, 255, 255);&quot; id=&quot;yui_3_17_2_1_1695556231344_34&quot;&gt;&lt;li style=&quot;box-sizing: border-box;&quot;&gt;Robotic Arm Agent: picking a single piece out of a bin, and moving it into position on the welding surface. This agent does not have a strong enough grip to hold the piece in place.&lt;/li&gt;&lt;li style=&quot;box-sizing: border-box;&quot; id=&quot;yui_3_17_2_1_1695556231344_33&quot;&gt;Welding Agent: welds a joint.&lt;/li&gt;&lt;li style=&quot;box-sizing: border-box;&quot;&gt;Holding Agent: holds a piece firmly in place on the assembly surface&lt;/li&gt;&lt;li style=&quot;box-sizing: border-box;&quot;&gt;Moving agent: Moves the entire bike frame safely away from the assembly surface&lt;/li&gt;&lt;/ul&gt;" style="rounded=0;whiteSpace=wrap;html=1;" parent="WIyWlLk6GJQsqaUBKTNV-1" vertex="1">
          <mxGeometry x="-150" y="230" width="480" height="360" as="geometry" />
        </mxCell>
        <mxCell id="1owg42yloBusg6G1mB5r-2" value="&lt;ul style=&quot;box-sizing: border-box; margin-top: 0px; padding-left: 1rem; margin-inline-start: 0.2rem; margin-bottom: 18px; font-family: proxima-nova, arial, sans-serif; font-size: 17px; color: rgb(68, 68, 68); letter-spacing: 0.175px; text-align: left; background-color: rgb(255, 255, 255);&quot; id=&quot;yui_3_17_2_1_1695556231344_37&quot;&gt;&lt;li style=&quot;box-sizing: border-box;&quot;&gt;Pieces should be welded together at their joining points:&lt;ul style=&quot;box-sizing: border-box; margin-top: 0px; padding-left: 1rem; margin-inline-start: 0.2rem; margin-bottom: 18px;&quot;&gt;&lt;li style=&quot;box-sizing: border-box;&quot;&gt;(1,2,3)&lt;/li&gt;&lt;li style=&quot;box-sizing: border-box;&quot;&gt;(2,4)&lt;/li&gt;&lt;li style=&quot;box-sizing: border-box;&quot;&gt;(3,4,6)&lt;/li&gt;&lt;li style=&quot;box-sizing: border-box;&quot;&gt;(4,5)&lt;/li&gt;&lt;li style=&quot;box-sizing: border-box;&quot;&gt;(5,6)&lt;/li&gt;&lt;/ul&gt;&lt;/li&gt;&lt;/ul&gt;" style="rounded=0;whiteSpace=wrap;html=1;" parent="WIyWlLk6GJQsqaUBKTNV-1" vertex="1">
          <mxGeometry x="70" y="-10" width="260" height="190" as="geometry" />
        </mxCell>
        <mxCell id="1owg42yloBusg6G1mB5r-3" value="Bin 1 - Head Tube" style="ellipse;whiteSpace=wrap;html=1;fillColor=#d5e8d4;strokeColor=#82b366;" parent="WIyWlLk6GJQsqaUBKTNV-1" vertex="1">
          <mxGeometry x="500" y="-407" width="90" height="90" as="geometry" />
        </mxCell>
        <mxCell id="1owg42yloBusg6G1mB5r-4" value="Bin 3 - Down&lt;br&gt;Tube" style="ellipse;whiteSpace=wrap;html=1;fillColor=#e1d5e7;strokeColor=#9673a6;" parent="WIyWlLk6GJQsqaUBKTNV-1" vertex="1">
          <mxGeometry x="600" y="-292" width="90" height="90" as="geometry" />
        </mxCell>
        <mxCell id="1owg42yloBusg6G1mB5r-5" value="Bin 6 - Chain Stay" style="ellipse;whiteSpace=wrap;html=1;fillColor=#f8cecc;strokeColor=#b85450;" parent="WIyWlLk6GJQsqaUBKTNV-1" vertex="1">
          <mxGeometry x="600" y="-192" width="90" height="90" as="geometry" />
        </mxCell>
        <mxCell id="1owg42yloBusg6G1mB5r-6" value="Bin 5 - Seat Stay" style="ellipse;whiteSpace=wrap;html=1;fillColor=#dae8fc;strokeColor=#6c8ebf;" parent="WIyWlLk6GJQsqaUBKTNV-1" vertex="1">
          <mxGeometry x="500" y="-192" width="90" height="90" as="geometry" />
        </mxCell>
        <mxCell id="1owg42yloBusg6G1mB5r-7" value="Bin 2 - &lt;br&gt;Top Tube" style="ellipse;whiteSpace=wrap;html=1;fillColor=#fff2cc;strokeColor=#d6b656;" parent="WIyWlLk6GJQsqaUBKTNV-1" vertex="1">
          <mxGeometry x="500" y="-292" width="90" height="90" as="geometry" />
        </mxCell>
        <mxCell id="1owg42yloBusg6G1mB5r-8" value="Bin 4 - Seat Tube" style="ellipse;whiteSpace=wrap;html=1;fillColor=#ffe6cc;strokeColor=#d79b00;" parent="WIyWlLk6GJQsqaUBKTNV-1" vertex="1">
          <mxGeometry x="600" y="-407" width="90" height="90" as="geometry" />
        </mxCell>
        <mxCell id="1owg42yloBusg6G1mB5r-9" value="" style="shape=image;verticalLabelPosition=bottom;labelBackgroundColor=default;verticalAlign=top;aspect=fixed;imageAspect=0;image=https://liverpool-online-study.com/pluginfile.php/159072/mod_assign/intro/Bicycle.png;" parent="WIyWlLk6GJQsqaUBKTNV-1" vertex="1">
          <mxGeometry x="640" y="635" width="672" height="384" as="geometry" />
        </mxCell>
        <mxCell id="1owg42yloBusg6G1mB5r-10" value="" style="edgeStyle=orthogonalEdgeStyle;rounded=0;orthogonalLoop=1;jettySize=auto;html=1;" parent="WIyWlLk6GJQsqaUBKTNV-1" source="1owg42yloBusg6G1mB5r-11" target="1owg42yloBusg6G1mB5r-16" edge="1">
          <mxGeometry relative="1" as="geometry" />
        </mxCell>
        <mxCell id="1owg42yloBusg6G1mB5r-11" value="" style="ellipse;whiteSpace=wrap;html=1;fillColor=none;" parent="WIyWlLk6GJQsqaUBKTNV-1" vertex="1">
          <mxGeometry x="1169" y="653" width="130" height="130" as="geometry" />
        </mxCell>
        <mxCell id="1owg42yloBusg6G1mB5r-12" value="" style="edgeStyle=orthogonalEdgeStyle;rounded=0;orthogonalLoop=1;jettySize=auto;html=1;" parent="WIyWlLk6GJQsqaUBKTNV-1" source="1owg42yloBusg6G1mB5r-13" target="1owg42yloBusg6G1mB5r-24" edge="1">
          <mxGeometry relative="1" as="geometry" />
        </mxCell>
        <mxCell id="1owg42yloBusg6G1mB5r-13" value="" style="ellipse;whiteSpace=wrap;html=1;fillColor=none;" parent="WIyWlLk6GJQsqaUBKTNV-1" vertex="1">
          <mxGeometry x="615" y="898" width="130" height="130" as="geometry" />
        </mxCell>
        <mxCell id="1owg42yloBusg6G1mB5r-14" value="" style="edgeStyle=orthogonalEdgeStyle;rounded=0;orthogonalLoop=1;jettySize=auto;html=1;" parent="WIyWlLk6GJQsqaUBKTNV-1" source="1owg42yloBusg6G1mB5r-15" target="1owg42yloBusg6G1mB5r-17" edge="1">
          <mxGeometry relative="1" as="geometry" />
        </mxCell>
        <mxCell id="1owg42yloBusg6G1mB5r-15" value="" style="ellipse;whiteSpace=wrap;html=1;fillColor=none;" parent="WIyWlLk6GJQsqaUBKTNV-1" vertex="1">
          <mxGeometry x="784" y="660" width="130" height="130" as="geometry" />
        </mxCell>
        <mxCell id="1owg42yloBusg6G1mB5r-16" value="Join A (1,2,3)" style="rounded=1;whiteSpace=wrap;html=1;fillColor=none;" parent="WIyWlLk6GJQsqaUBKTNV-1" vertex="1">
          <mxGeometry x="1174" y="478" width="120" height="60" as="geometry" />
        </mxCell>
        <mxCell id="1owg42yloBusg6G1mB5r-17" value="Join B (2,4)" style="rounded=1;whiteSpace=wrap;html=1;fillColor=none;" parent="WIyWlLk6GJQsqaUBKTNV-1" vertex="1">
          <mxGeometry x="765" y="485" width="120" height="60" as="geometry" />
        </mxCell>
        <mxCell id="1owg42yloBusg6G1mB5r-18" value="" style="edgeStyle=orthogonalEdgeStyle;rounded=0;orthogonalLoop=1;jettySize=auto;html=1;" parent="WIyWlLk6GJQsqaUBKTNV-1" source="1owg42yloBusg6G1mB5r-19" target="1owg42yloBusg6G1mB5r-20" edge="1">
          <mxGeometry relative="1" as="geometry" />
        </mxCell>
        <mxCell id="1owg42yloBusg6G1mB5r-19" value="" style="ellipse;whiteSpace=wrap;html=1;fillColor=none;" parent="WIyWlLk6GJQsqaUBKTNV-1" vertex="1">
          <mxGeometry x="784" y="894" width="130" height="130" as="geometry" />
        </mxCell>
        <mxCell id="1owg42yloBusg6G1mB5r-20" value="Join C (3,4,6)" style="rounded=1;whiteSpace=wrap;html=1;fillColor=none;" parent="WIyWlLk6GJQsqaUBKTNV-1" vertex="1">
          <mxGeometry x="999" y="929" width="120" height="60" as="geometry" />
        </mxCell>
        <mxCell id="1owg42yloBusg6G1mB5r-21" value="" style="edgeStyle=orthogonalEdgeStyle;rounded=0;orthogonalLoop=1;jettySize=auto;html=1;" parent="WIyWlLk6GJQsqaUBKTNV-1" source="1owg42yloBusg6G1mB5r-22" target="1owg42yloBusg6G1mB5r-23" edge="1">
          <mxGeometry relative="1" as="geometry" />
        </mxCell>
        <mxCell id="1owg42yloBusg6G1mB5r-22" value="" style="ellipse;whiteSpace=wrap;html=1;fillColor=none;" parent="WIyWlLk6GJQsqaUBKTNV-1" vertex="1">
          <mxGeometry x="755" y="670" width="130" height="130" as="geometry" />
        </mxCell>
        <mxCell id="1owg42yloBusg6G1mB5r-23" value="Join D (4,5)" style="rounded=1;whiteSpace=wrap;html=1;fillColor=none;" parent="WIyWlLk6GJQsqaUBKTNV-1" vertex="1">
          <mxGeometry x="550" y="705" width="120" height="60" as="geometry" />
        </mxCell>
        <mxCell id="1owg42yloBusg6G1mB5r-24" value="Join E (5,6)" style="rounded=1;whiteSpace=wrap;html=1;fillColor=none;" parent="WIyWlLk6GJQsqaUBKTNV-1" vertex="1">
          <mxGeometry x="410" y="933" width="120" height="60" as="geometry" />
        </mxCell>
        <mxCell id="1owg42yloBusg6G1mB5r-25" value="Once Welding Agent 1 &amp;amp; 2 are complete, move entire bike from assembly surface" style="text;html=1;strokeColor=none;fillColor=none;align=center;verticalAlign=middle;whiteSpace=wrap;rounded=0;" parent="WIyWlLk6GJQsqaUBKTNV-1" vertex="1">
          <mxGeometry x="1410" y="-217" width="190" height="50" as="geometry" />
        </mxCell>
        <mxCell id="1owg42yloBusg6G1mB5r-26" value="Holding Agent (HA4)&lt;br&gt;- Seat Tube" style="rounded=1;whiteSpace=wrap;html=1;fillColor=#ffe6cc;strokeColor=#d79b00;" parent="WIyWlLk6GJQsqaUBKTNV-1" vertex="1">
          <mxGeometry x="880" y="-182" width="120" height="60" as="geometry" />
        </mxCell>
        <mxCell id="1owg42yloBusg6G1mB5r-27" value="Holding Agent (HA5)&lt;br&gt;- Seat Stay" style="rounded=1;whiteSpace=wrap;html=1;fillColor=#dae8fc;strokeColor=#6c8ebf;" parent="WIyWlLk6GJQsqaUBKTNV-1" vertex="1">
          <mxGeometry x="1010" y="-182" width="120" height="60" as="geometry" />
        </mxCell>
        <mxCell id="1owg42yloBusg6G1mB5r-28" value="Holding Agent (HA6)&lt;br&gt;- Chain Stay" style="rounded=1;whiteSpace=wrap;html=1;fillColor=#f8cecc;strokeColor=#b85450;" parent="WIyWlLk6GJQsqaUBKTNV-1" vertex="1">
          <mxGeometry x="1140" y="-182" width="120" height="60" as="geometry" />
        </mxCell>
        <mxCell id="1owg42yloBusg6G1mB5r-29" value="Holding Agent (HA1)&lt;br&gt;- Head Tube" style="rounded=1;whiteSpace=wrap;html=1;fillColor=#d5e8d4;strokeColor=#82b366;" parent="WIyWlLk6GJQsqaUBKTNV-1" vertex="1">
          <mxGeometry x="879.5" y="-407" width="120" height="60" as="geometry" />
        </mxCell>
        <mxCell id="1owg42yloBusg6G1mB5r-30" value="Holding Agent (HA2)&lt;br&gt;- Top Tube" style="rounded=1;whiteSpace=wrap;html=1;fillColor=#fff2cc;strokeColor=#d6b656;" parent="WIyWlLk6GJQsqaUBKTNV-1" vertex="1">
          <mxGeometry x="1010.5" y="-407" width="120" height="60" as="geometry" />
        </mxCell>
        <mxCell id="1owg42yloBusg6G1mB5r-31" value="Holding Agent (HA3)&lt;br&gt;- Down Tube" style="rounded=1;whiteSpace=wrap;html=1;fillColor=#e1d5e7;strokeColor=#9673a6;" parent="WIyWlLk6GJQsqaUBKTNV-1" vertex="1">
          <mxGeometry x="1140.5" y="-407" width="120" height="60" as="geometry" />
        </mxCell>
        <mxCell id="1owg42yloBusg6G1mB5r-32" value="Robotic Arm 1&lt;br&gt;(Primary - 1,4)" style="rounded=1;whiteSpace=wrap;html=1;fillColor=#bac8d3;strokeColor=#23445d;" parent="WIyWlLk6GJQsqaUBKTNV-1" vertex="1">
          <mxGeometry x="720" y="-392" width="150" height="122" as="geometry" />
        </mxCell>
        <mxCell id="1owg42yloBusg6G1mB5r-33" value="Robotic Arm 2&lt;br style=&quot;border-color: var(--border-color);&quot;&gt;(Secondary - 2,3,5,6)" style="rounded=1;whiteSpace=wrap;html=1;fillColor=#b0e3e6;strokeColor=#0e8088;" parent="WIyWlLk6GJQsqaUBKTNV-1" vertex="1">
          <mxGeometry x="720" y="-260" width="150" height="120" as="geometry" />
        </mxCell>
        <mxCell id="1owg42yloBusg6G1mB5r-34" value="Assembly Surface" style="rounded=1;whiteSpace=wrap;html=1;" parent="WIyWlLk6GJQsqaUBKTNV-1" vertex="1">
          <mxGeometry x="880" y="-330" width="380" height="130" as="geometry" />
        </mxCell>
        <mxCell id="1owg42yloBusg6G1mB5r-35" value="Welding Agent 1 (A,B,D)" style="rounded=1;whiteSpace=wrap;html=1;fillColor=#bac8d3;strokeColor=#23445d;" parent="WIyWlLk6GJQsqaUBKTNV-1" vertex="1">
          <mxGeometry x="1280" y="-377" width="120" height="107" as="geometry" />
        </mxCell>
        <mxCell id="1owg42yloBusg6G1mB5r-36" value="" style="shape=image;verticalLabelPosition=bottom;labelBackgroundColor=default;verticalAlign=top;aspect=fixed;imageAspect=0;image=https://liverpool-online-study.com/pluginfile.php/159072/mod_assign/intro/Bicycle.png;" parent="WIyWlLk6GJQsqaUBKTNV-1" vertex="1">
          <mxGeometry x="991.37" y="-310" width="169.75" height="97" as="geometry" />
        </mxCell>
        <mxCell id="1owg42yloBusg6G1mB5r-37" value="Welding Agent 2&lt;br&gt;(C,E)" style="rounded=1;whiteSpace=wrap;html=1;fillColor=#b0e3e6;strokeColor=#0e8088;" parent="WIyWlLk6GJQsqaUBKTNV-1" vertex="1">
          <mxGeometry x="1280" y="-260" width="120" height="107" as="geometry" />
        </mxCell>
        <mxCell id="1owg42yloBusg6G1mB5r-38" value="Moving Agent (MA)" style="shape=step;perimeter=stepPerimeter;whiteSpace=wrap;html=1;fixedSize=1;" parent="WIyWlLk6GJQsqaUBKTNV-1" vertex="1">
          <mxGeometry x="1410" y="-303.5" width="200" height="80" as="geometry" />
        </mxCell>
        <mxCell id="1owg42yloBusg6G1mB5r-39" value="Bike assembled, move to next bicycle" style="text;html=1;strokeColor=none;fillColor=none;align=center;verticalAlign=middle;whiteSpace=wrap;rounded=0;" parent="WIyWlLk6GJQsqaUBKTNV-1" vertex="1">
          <mxGeometry x="1620" y="-288.5" width="190" height="50" as="geometry" />
        </mxCell>
        <mxCell id="1owg42yloBusg6G1mB5r-40" value="&lt;b&gt;Robotic Arm 2 - Percepts:&lt;/b&gt;&lt;br&gt;&lt;ol&gt;&lt;li&gt;Move to bin&lt;/li&gt;&lt;li&gt;If bin has item&lt;/li&gt;&lt;li&gt;Pick item&lt;/li&gt;&lt;li&gt;Rotate to assembly surface&lt;/li&gt;&lt;li&gt;Signal that arm is in assembly position&lt;/li&gt;&lt;li&gt;Wait for holding agent&lt;/li&gt;&lt;li&gt;Move to next bin&lt;/li&gt;&lt;li&gt;Repeat until bin 2,3,5 and 6 are empty&lt;/li&gt;&lt;/ol&gt;" style="text;html=1;strokeColor=none;fillColor=none;align=left;verticalAlign=middle;whiteSpace=wrap;rounded=0;" parent="WIyWlLk6GJQsqaUBKTNV-1" vertex="1">
          <mxGeometry x="720" y="-120" width="210" height="180" as="geometry" />
        </mxCell>
        <mxCell id="1owg42yloBusg6G1mB5r-41" value="&lt;b&gt;Robotic Arm 1 - Percepts:&lt;/b&gt;&lt;br&gt;&lt;ol&gt;&lt;li&gt;Move to bin&lt;/li&gt;&lt;li&gt;If bin has item&lt;/li&gt;&lt;li&gt;Pick item&lt;/li&gt;&lt;li&gt;Rotate to assembly surface&lt;/li&gt;&lt;li&gt;Signal that arm is in assembly position&lt;/li&gt;&lt;li&gt;Wait for holding agent&lt;/li&gt;&lt;li&gt;Move to next bin&lt;/li&gt;&lt;li&gt;Repeat until bin 1 and 4 are empty&lt;/li&gt;&lt;/ol&gt;" style="text;html=1;strokeColor=none;fillColor=none;align=left;verticalAlign=middle;whiteSpace=wrap;rounded=0;" parent="WIyWlLk6GJQsqaUBKTNV-1" vertex="1">
          <mxGeometry x="720" y="-580" width="210" height="180" as="geometry" />
        </mxCell>
        <mxCell id="1owg42yloBusg6G1mB5r-42" value="&lt;b&gt;Holding Agent - Percepts:&lt;/b&gt;&lt;br&gt;&lt;ol&gt;&lt;li&gt;Wait for robotic arm to reach assembly surface&lt;/li&gt;&lt;li&gt;If arm in position, hold item&lt;/li&gt;&lt;li&gt;Signal to Welding Agent that item is being held&lt;/li&gt;&lt;li&gt;Wait for joints A,B,D to be welded&lt;/li&gt;&lt;li&gt;When complete, release item to moving agent&lt;/li&gt;&lt;/ol&gt;" style="text;html=1;strokeColor=none;fillColor=none;align=left;verticalAlign=middle;whiteSpace=wrap;rounded=0;" parent="WIyWlLk6GJQsqaUBKTNV-1" vertex="1">
          <mxGeometry x="954" y="-527" width="306" height="120" as="geometry" />
        </mxCell>
        <mxCell id="1owg42yloBusg6G1mB5r-43" value="" style="ellipse;whiteSpace=wrap;html=1;fillColor=none;" parent="WIyWlLk6GJQsqaUBKTNV-1" vertex="1">
          <mxGeometry x="1127" y="-303.5" width="30" height="30" as="geometry" />
        </mxCell>
        <mxCell id="1owg42yloBusg6G1mB5r-44" value="" style="ellipse;whiteSpace=wrap;html=1;fillColor=none;" parent="WIyWlLk6GJQsqaUBKTNV-1" vertex="1">
          <mxGeometry x="1030" y="-243" width="30" height="30" as="geometry" />
        </mxCell>
        <mxCell id="1owg42yloBusg6G1mB5r-45" value="" style="ellipse;whiteSpace=wrap;html=1;fillColor=none;" parent="WIyWlLk6GJQsqaUBKTNV-1" vertex="1">
          <mxGeometry x="987" y="-243" width="30" height="30" as="geometry" />
        </mxCell>
        <mxCell id="1owg42yloBusg6G1mB5r-46" value="" style="ellipse;whiteSpace=wrap;html=1;fillColor=none;" parent="WIyWlLk6GJQsqaUBKTNV-1" vertex="1">
          <mxGeometry x="1030" y="-303.5" width="30" height="30" as="geometry" />
        </mxCell>
        <mxCell id="1owg42yloBusg6G1mB5r-47" value="" style="ellipse;whiteSpace=wrap;html=1;fillColor=none;" parent="WIyWlLk6GJQsqaUBKTNV-1" vertex="1">
          <mxGeometry x="1017" y="-299" width="30" height="30" as="geometry" />
        </mxCell>
        <mxCell id="1owg42yloBusg6G1mB5r-48" value="A" style="rounded=0;whiteSpace=wrap;html=1;fillColor=#bac8d3;strokeColor=#23445d;" parent="WIyWlLk6GJQsqaUBKTNV-1" vertex="1">
          <mxGeometry x="1179" y="-299.5" width="30" height="24" as="geometry" />
        </mxCell>
        <mxCell id="1owg42yloBusg6G1mB5r-49" value="B" style="rounded=0;whiteSpace=wrap;html=1;fillColor=#bac8d3;strokeColor=#23445d;" parent="WIyWlLk6GJQsqaUBKTNV-1" vertex="1">
          <mxGeometry x="1071" y="-335.5" width="30" height="24" as="geometry" />
        </mxCell>
        <mxCell id="1owg42yloBusg6G1mB5r-50" style="edgeStyle=orthogonalEdgeStyle;rounded=0;orthogonalLoop=1;jettySize=auto;html=1;exitX=0;exitY=0.5;exitDx=0;exitDy=0;entryX=0.5;entryY=0;entryDx=0;entryDy=0;" parent="WIyWlLk6GJQsqaUBKTNV-1" source="1owg42yloBusg6G1mB5r-49" target="1owg42yloBusg6G1mB5r-46" edge="1">
          <mxGeometry relative="1" as="geometry" />
        </mxCell>
        <mxCell id="1owg42yloBusg6G1mB5r-51" style="edgeStyle=orthogonalEdgeStyle;rounded=0;orthogonalLoop=1;jettySize=auto;html=1;exitX=0;exitY=0.5;exitDx=0;exitDy=0;" parent="WIyWlLk6GJQsqaUBKTNV-1" source="1owg42yloBusg6G1mB5r-48" edge="1">
          <mxGeometry relative="1" as="geometry">
            <mxPoint x="1158" y="-288" as="targetPoint" />
          </mxGeometry>
        </mxCell>
        <mxCell id="1owg42yloBusg6G1mB5r-52" style="edgeStyle=orthogonalEdgeStyle;rounded=0;orthogonalLoop=1;jettySize=auto;html=1;exitX=1;exitY=0.5;exitDx=0;exitDy=0;entryX=0;entryY=0.5;entryDx=0;entryDy=0;" parent="WIyWlLk6GJQsqaUBKTNV-1" source="1owg42yloBusg6G1mB5r-53" target="1owg42yloBusg6G1mB5r-47" edge="1">
          <mxGeometry relative="1" as="geometry" />
        </mxCell>
        <mxCell id="1owg42yloBusg6G1mB5r-53" value="D" style="rounded=0;whiteSpace=wrap;html=1;fillColor=#bac8d3;strokeColor=#23445d;" parent="WIyWlLk6GJQsqaUBKTNV-1" vertex="1">
          <mxGeometry x="956" y="-296" width="30" height="24" as="geometry" />
        </mxCell>
        <mxCell id="1owg42yloBusg6G1mB5r-54" style="edgeStyle=orthogonalEdgeStyle;rounded=0;orthogonalLoop=1;jettySize=auto;html=1;exitX=1;exitY=0.5;exitDx=0;exitDy=0;entryX=0;entryY=0.5;entryDx=0;entryDy=0;" parent="WIyWlLk6GJQsqaUBKTNV-1" source="1owg42yloBusg6G1mB5r-55" target="1owg42yloBusg6G1mB5r-45" edge="1">
          <mxGeometry relative="1" as="geometry" />
        </mxCell>
        <mxCell id="1owg42yloBusg6G1mB5r-55" value="E" style="rounded=0;whiteSpace=wrap;html=1;fillColor=#b0e3e6;strokeColor=#0e8088;" parent="WIyWlLk6GJQsqaUBKTNV-1" vertex="1">
          <mxGeometry x="930" y="-240" width="30" height="24" as="geometry" />
        </mxCell>
        <mxCell id="1owg42yloBusg6G1mB5r-56" value="C" style="rounded=0;whiteSpace=wrap;html=1;fillColor=#b0e3e6;strokeColor=#0e8088;" parent="WIyWlLk6GJQsqaUBKTNV-1" vertex="1">
          <mxGeometry x="1097" y="-237" width="30" height="24" as="geometry" />
        </mxCell>
        <mxCell id="1owg42yloBusg6G1mB5r-57" style="edgeStyle=orthogonalEdgeStyle;rounded=0;orthogonalLoop=1;jettySize=auto;html=1;exitX=0;exitY=0.5;exitDx=0;exitDy=0;entryX=0.981;entryY=0.629;entryDx=0;entryDy=0;entryPerimeter=0;" parent="WIyWlLk6GJQsqaUBKTNV-1" source="1owg42yloBusg6G1mB5r-56" target="1owg42yloBusg6G1mB5r-44" edge="1">
          <mxGeometry relative="1" as="geometry" />
        </mxCell>
        <mxCell id="1owg42yloBusg6G1mB5r-58" value="&lt;b&gt;Welding Agent 1 - Percepts:&lt;/b&gt;&lt;br&gt;&lt;ol&gt;&lt;li&gt;If pieces 1,2,3 are being held, weld Joint A&lt;/li&gt;&lt;li&gt;If pieces 2,4 are being held, weld Joint B&lt;/li&gt;&lt;li&gt;If pieces 4,5 are being held, weld Joint D&lt;/li&gt;&lt;li&gt;Signal that Welding Agent 1 is complete&lt;/li&gt;&lt;/ol&gt;" style="text;html=1;strokeColor=none;fillColor=none;align=left;verticalAlign=middle;whiteSpace=wrap;rounded=0;" parent="WIyWlLk6GJQsqaUBKTNV-1" vertex="1">
          <mxGeometry x="1280" y="-482" width="280" height="107" as="geometry" />
        </mxCell>
        <mxCell id="1owg42yloBusg6G1mB5r-59" value="&lt;b&gt;Welding Agent 2 - Percepts:&lt;/b&gt;&lt;br&gt;&lt;ol&gt;&lt;li&gt;If pieces 3,4,6 are being held, weld Joint C&lt;/li&gt;&lt;li&gt;If pieces 5,6 are being held, weld Joint E&lt;/li&gt;&lt;li&gt;Signal that Welding Agent 2 is complete&lt;/li&gt;&lt;/ol&gt;" style="text;html=1;strokeColor=none;fillColor=none;align=left;verticalAlign=middle;whiteSpace=wrap;rounded=0;" parent="WIyWlLk6GJQsqaUBKTNV-1" vertex="1">
          <mxGeometry x="1280" y="-147" width="280" height="107" as="geometry" />
        </mxCell>
        <mxCell id="1owg42yloBusg6G1mB5r-60" value="&lt;b&gt;Bin - Percepts:&lt;/b&gt;&lt;br&gt;&lt;ol&gt;&lt;li&gt;Bin full/bin empty&lt;/li&gt;&lt;li&gt;All bins empty&lt;/li&gt;&lt;/ol&gt;" style="text;html=1;strokeColor=none;fillColor=none;align=left;verticalAlign=middle;whiteSpace=wrap;rounded=0;" parent="WIyWlLk6GJQsqaUBKTNV-1" vertex="1">
          <mxGeometry x="500" y="-510" width="190" height="90" as="geometry" />
        </mxCell>
        <mxCell id="1owg42yloBusg6G1mB5r-61" value="Assembly Surface" style="text;html=1;strokeColor=none;fillColor=none;align=center;verticalAlign=middle;whiteSpace=wrap;rounded=0;rotation=-90;" parent="WIyWlLk6GJQsqaUBKTNV-1" vertex="1">
          <mxGeometry x="853" y="-278.5" width="103" height="30" as="geometry" />
        </mxCell>
        <mxCell id="1owg42yloBusg6G1mB5r-62" value="" style="rounded=1;whiteSpace=wrap;html=1;fillColor=none;dashed=1;arcSize=14;" parent="WIyWlLk6GJQsqaUBKTNV-1" vertex="1">
          <mxGeometry x="490.5" y="-303.5" width="209" height="211.5" as="geometry" />
        </mxCell>
        <mxCell id="1owg42yloBusg6G1mB5r-63" value="&lt;b&gt;Holding Agent - Percepts:&lt;/b&gt;&lt;br&gt;&lt;ol&gt;&lt;li&gt;Wait for robotic arm to reach assembly surface&lt;/li&gt;&lt;li&gt;If arm in position, hold item&lt;/li&gt;&lt;li&gt;Signal to Welding Agent that item is being held&lt;/li&gt;&lt;li&gt;Wait for joints C,E to be welded&lt;/li&gt;&lt;li&gt;When complete, release item to moving agent&lt;/li&gt;&lt;/ol&gt;" style="text;html=1;strokeColor=none;fillColor=none;align=left;verticalAlign=middle;whiteSpace=wrap;rounded=0;" parent="WIyWlLk6GJQsqaUBKTNV-1" vertex="1">
          <mxGeometry x="954" y="-107" width="306" height="120" as="geometry" />
        </mxCell>
        <mxCell id="1owg42yloBusg6G1mB5r-64" value="&lt;b&gt;&lt;u&gt;&lt;font style=&quot;font-size: 20px;&quot;&gt;Manufacturing Process&lt;/font&gt;&lt;/u&gt;&lt;/b&gt;" style="text;html=1;strokeColor=none;fillColor=none;align=center;verticalAlign=middle;whiteSpace=wrap;rounded=0;" parent="WIyWlLk6GJQsqaUBKTNV-1" vertex="1">
          <mxGeometry x="947.25" y="-640" width="319.5" height="50" as="geometry" />
        </mxCell>
        <mxCell id="1owg42yloBusg6G1mB5r-65" value="&lt;span style=&quot;font-size: 20px;&quot;&gt;&lt;b&gt;&lt;u&gt;Guidelines for Manufacturing Process and Parts&lt;/u&gt;&lt;/b&gt;&lt;/span&gt;" style="text;html=1;strokeColor=none;fillColor=none;align=center;verticalAlign=middle;whiteSpace=wrap;rounded=0;" parent="WIyWlLk6GJQsqaUBKTNV-1" vertex="1">
          <mxGeometry x="-69.75" y="-102" width="319.5" height="50" as="geometry" />
        </mxCell>
        <mxCell id="1owg42yloBusg6G1mB5r-66" value="&lt;b&gt;&lt;font style=&quot;font-size: 20px;&quot;&gt;&lt;u&gt;Join Points (Zoomed in)&lt;/u&gt;&lt;/font&gt;&lt;/b&gt;" style="text;html=1;strokeColor=none;fillColor=none;align=center;verticalAlign=middle;whiteSpace=wrap;rounded=0;" parent="WIyWlLk6GJQsqaUBKTNV-1" vertex="1">
          <mxGeometry x="799.5" y="400" width="319.5" height="50" as="geometry" />
        </mxCell>
        <mxCell id="1owg42yloBusg6G1mB5r-67" value="&lt;b&gt;&amp;nbsp;Agent Quantities:&lt;/b&gt;&lt;br&gt;&lt;ul&gt;&lt;li&gt;Robotic Arm x2&lt;/li&gt;&lt;li&gt;Holding Agent x6&lt;/li&gt;&lt;li&gt;Welding Agent x2&lt;/li&gt;&lt;li&gt;Moving Agent x1&lt;/li&gt;&lt;/ul&gt;" style="rounded=0;whiteSpace=wrap;html=1;align=left;" parent="WIyWlLk6GJQsqaUBKTNV-1" vertex="1">
          <mxGeometry x="517.5" y="-720" width="162.5" height="120" as="geometry" />
        </mxCell>
        <mxCell id="hs603zmyzqbK3QKY6A2t-0" style="edgeStyle=orthogonalEdgeStyle;rounded=0;orthogonalLoop=1;jettySize=auto;html=1;exitX=0.5;exitY=1;exitDx=0;exitDy=0;" parent="WIyWlLk6GJQsqaUBKTNV-1" source="1owg42yloBusg6G1mB5r-29" target="1owg42yloBusg6G1mB5r-29" edge="1">
          <mxGeometry relative="1" as="geometry" />
        </mxCell>
        <mxCell id="hs603zmyzqbK3QKY6A2t-2" value="" style="rounded=1;whiteSpace=wrap;html=1;fillColor=none;dashed=1;arcSize=14;strokeColor=#36393d;" parent="WIyWlLk6GJQsqaUBKTNV-1" vertex="1">
          <mxGeometry x="490.5" y="-411.5" width="209" height="101.5" as="geometry" />
        </mxCell>
        <mxCell id="hs603zmyzqbK3QKY6A2t-3" value="&lt;b&gt;Primary&lt;/b&gt;" style="text;html=1;strokeColor=none;fillColor=none;align=left;verticalAlign=middle;whiteSpace=wrap;rounded=0;rotation=-90;" parent="WIyWlLk6GJQsqaUBKTNV-1" vertex="1">
          <mxGeometry x="438" y="-387" width="69" height="34" as="geometry" />
        </mxCell>
        <mxCell id="hs603zmyzqbK3QKY6A2t-4" value="&lt;b&gt;Secondary&lt;/b&gt;" style="text;html=1;strokeColor=none;fillColor=none;align=left;verticalAlign=middle;whiteSpace=wrap;rounded=0;rotation=-90;" parent="WIyWlLk6GJQsqaUBKTNV-1" vertex="1">
          <mxGeometry x="438" y="-223.5" width="69" height="34" as="geometry" />
        </mxCell>
      </root>
    </mxGraphModel>
  </diagram>
</mxfile>
